<svg width="61" height="122" viewBox="0 0 61 122" fill="none" xmlns="http://www.w3.org/2000/svg">
<path d="M57.5874 2.71012C56.7107 1.98177 55.6985 1.43301 54.6088 1.09528C53.519 0.757539 52.3731 0.637459 51.2368 0.741916C50.1004 0.846373 48.9959 1.17331 47.9864 1.70401C46.977 2.23471 46.0825 2.95874 45.3541 3.83463L1.9737 55.7349C0.697609 57.2826 0 59.2241 0 61.2276C0 63.2312 0.697609 65.1726 1.9737 66.7204L43.8792 118.621C44.6958 119.624 45.7275 120.433 46.8986 120.986C48.0697 121.54 49.3504 121.826 50.6466 121.821C52.2884 121.827 53.8981 121.368 55.2887 120.497C56.6792 119.627 57.7936 118.382 58.5023 116.905C59.211 115.428 59.4849 113.782 59.2923 112.156C59.0996 110.531 58.4483 108.993 57.4139 107.722L19.8464 61.2709L58.7153 14.9067C59.4459 14.0326 59.9963 13.0234 60.335 11.937C60.6738 10.8505 60.7942 9.70805 60.6894 8.57509C60.5847 7.44214 60.2567 6.34092 59.7244 5.33451C59.1922 4.32811 58.466 3.43628 57.5874 2.71012Z" fill="#231F20"/>
</svg>
