<svg width="62" height="122" viewBox="0 0 62 122" fill="none" xmlns="http://www.w3.org/2000/svg">
<path d="M59.1324 55.8301L17.6919 3.93765C16.9765 3.04919 16.0921 2.31055 15.0896 1.76417C14.087 1.2178 12.9862 0.874469 11.8502 0.753913C10.7143 0.633356 9.5656 0.737953 8.4703 1.06169C7.37499 1.38543 6.35462 1.92192 5.46783 2.64033C4.57723 3.35405 3.83681 4.23632 3.28912 5.23643C2.74143 6.23655 2.39727 7.33478 2.27643 8.46801C2.15558 9.60124 2.26043 10.7471 2.58495 11.8398C2.90946 12.9325 3.44724 13.9504 4.16739 14.8351L41.1864 61.2788L2.34678 107.723C1.61678 108.596 1.0668 109.605 0.728297 110.692C0.389798 111.778 0.269447 112.92 0.37414 114.053C0.478832 115.186 0.80651 116.287 1.3384 117.293C1.8703 118.299 2.59596 119.191 3.47382 119.917C5.04545 121.175 7.00738 121.848 9.02235 121.82C10.296 121.822 11.5545 121.544 12.7082 121.006C13.862 120.468 14.8828 119.683 15.6979 118.706L59.0457 66.814C60.3331 65.2765 61.0456 63.3408 61.0614 61.3375C61.0772 59.3342 60.3954 57.3876 59.1324 55.8301Z" fill="#231F20"/>
</svg>
